<?xml version="1.0" encoding="iso-8859-1"?>
<!-- Generator: Adobe Illustrator 19.0.0, SVG Export Plug-In . SVG Version: 6.00 Build 0)  -->
<svg fill="#010101" version="1.1" id="Capa_1" xmlns="http://www.w3.org/2000/svg" xmlns:xlink="http://www.w3.org/1999/xlink" x="0px" y="0px"
	 viewBox="0 0 496.941 496.941" style="enable-background:new 0 0 496.941 496.941;" xml:space="preserve">
<g>
	<g>
		<g>
			<path d="M441.224,0c-105.412,0-289.129,0-345.6,0C79.059,0,65.506,13.553,65.506,30.118v48.188H33.129
				c-4.518,0-7.529,3.012-7.529,7.529v46.682c0,4.518,3.012,7.529,7.529,7.529h32.376v67.765H33.129
				c-4.518,0-7.529,3.012-7.529,7.529v46.682c0,4.518,3.012,7.529,7.529,7.529h32.376v67.765H33.129
				c-4.518,0-7.529,3.012-7.529,7.529v46.682c0,4.518,3.012,7.529,7.529,7.529h32.376v67.765c0,16.565,13.553,30.118,30.118,30.118
				h345.6c16.565,0,30.118-13.553,30.118-30.118V30.118C471.341,13.553,457.788,0,441.224,0z M40.659,124.988V93.365h64.753v31.624
				c-0.407,0-0.69,0-0.884,0c-0.26,0-0.36,0-0.371,0C102.231,124.988,91.385,124.988,40.659,124.988z M40.659,254.494v-31.623
				h64.753v31.623C100.141,254.494,51.953,254.494,40.659,254.494z M40.659,384v-31.624h64.753V384H40.659z M173.176,481.882H95.624
				c-8.282,0-15.059-6.776-15.059-15.059v-67.765h32.376c4.518,0,7.529-3.012,7.529-7.529v-46.682c0-4.518-3.012-7.529-7.529-7.529
				H80.565v-67.765h32.376c4.518,0,7.529-3.012,7.529-7.529v-46.682c0-4.518-3.012-7.529-7.529-7.529H80.565v-67.765h32.376
				c4.518,0,7.529-3.012,7.529-7.529V85.835c0-4.518-3.012-7.529-7.529-7.529H80.565V30.118c0-8.282,6.776-15.059,15.059-15.059
				h77.553V481.882z M456.282,466.824c0,8.282-6.776,15.059-15.059,15.059H188.235V15.059h252.988
				c8.282,0,15.059,6.776,15.059,15.059V466.824z"/>
			<path d="M323.765,207.812c27.859,0,50.447-22.588,50.447-50.447c0-27.859-22.588-50.447-50.447-50.447
				s-50.447,22.588-50.447,50.447S295.906,207.812,323.765,207.812z M323.765,121.976c19.576,0,35.388,15.812,35.388,35.388
				s-15.812,35.388-35.388,35.388s-35.388-15.812-35.388-35.388S304.188,121.976,323.765,121.976z"/>
			<path d="M352.376,213.082H294.4c-27.859,0-50.447,22.588-50.447,50.447v45.176c0,4.518,3.012,7.529,7.529,7.529h143.812
				c4.518,0,7.529-3.012,7.529-7.529v-45.176C402.824,235.671,380.235,213.082,352.376,213.082z M387.765,301.176H259.012v-37.647
				c0-19.576,15.812-35.388,35.388-35.388h57.976c19.576,0,35.388,15.812,35.388,35.388V301.176z"/>
			<path d="M395.294,337.318H251.482c-4.518,0-7.529,3.012-7.529,7.529s3.012,7.529,7.529,7.529h143.812
				c4.518,0,7.529-3.012,7.529-7.529S399.812,337.318,395.294,337.318z"/>
			<path d="M395.294,368.941H251.482c-4.518,0-7.529,3.012-7.529,7.529s3.012,7.529,7.529,7.529h143.812
				c4.518,0,7.529-3.012,7.529-7.529C402.824,372.706,399.812,368.941,395.294,368.941z"/>
		</g>
	</g>
</g>
<g>
</g>
<g>
</g>
<g>
</g>
<g>
</g>
<g>
</g>
<g>
</g>
<g>
</g>
<g>
</g>
<g>
</g>
<g>
</g>
<g>
</g>
<g>
</g>
<g>
</g>
<g>
</g>
<g>
</g>
</svg>
