<?xml version="1.0" encoding="utf-8"?>
<!-- Generator: Adobe Illustrator 16.0.0, SVG Export Plug-In . SVG Version: 6.00 Build 0)  -->
<!DOCTYPE svg PUBLIC "-//W3C//DTD SVG 1.1//EN" "http://www.w3.org/Graphics/SVG/1.1/DTD/svg11.dtd">
<svg version="1.1" id="Layer_1" xmlns="http://www.w3.org/2000/svg" xmlns:xlink="http://www.w3.org/1999/xlink" x="0px" y="0px"
	 width="100px" height="100px" viewBox="0 0 100 100" enable-background="new 0 0 100 100" xml:space="preserve">
<path fill="none" stroke="#000" stroke-width="2" stroke-miterlimit="10" d="M60.281,4c-6.541,0-12.19,1.994-16.156,5.934
	S38,19.647,38,26.734V36H26c-1.104,0-2,0.896-2,2v16c0,1.104,0.896,2,2,2h12v38c0,1.104,0.896,2,2,2h16c1.104,0,2-0.896,2-2V56h14
	c1.008,0,1.858-0.75,1.984-1.75l2-16c0.139-1.096-0.639-2.096-1.734-2.234C74.167,36.005,74.084,36,74,36H58v-8c0-2.233,1.767-4,4-4
	h12c1.104,0,2-0.896,2-2V6.691c-0.002-1.002-0.744-1.849-1.738-1.98C72.494,4.477,66.114,4,60.281,4z"/>
</svg>
