<?xml version="1.0" encoding="utf-8"?>
<!-- Generator: Adobe Illustrator 16.0.0, SVG Export Plug-In . SVG Version: 6.00 Build 0)  -->
<!DOCTYPE svg PUBLIC "-//W3C//DTD SVG 1.1//EN" "http://www.w3.org/Graphics/SVG/1.1/DTD/svg11.dtd">
<svg version="1.1" id="Layer_1" xmlns="http://www.w3.org/2000/svg" xmlns:xlink="http://www.w3.org/1999/xlink" x="0px" y="0px"
	 width="50px" height="50px" viewBox="0 0 50 50" enable-background="new 0 0 50 50" xml:space="preserve">
<g>
	<path fill="none" stroke="#010101" stroke-width="2" stroke-linecap="round" stroke-linejoin="round" stroke-miterlimit="10" d="
		M46,25c0,11.598-9.402,21-21,21c-5.741,0-10.944-2.304-14.735-6.037C6.398,36.154,4,30.857,4,25C4,13.402,13.402,4,25,4
		C36.598,4,46,13.402,46,25z"/>
	<path fill="none" stroke="#010101" stroke-width="2" stroke-linecap="round" stroke-linejoin="round" stroke-miterlimit="10" d="
		M11.504,39.691c0,0,8.448-2.896,9.293-4.707v-3.861c0,0-2.293-2.535-2.293-4.587c0,0-2.776-2.896-0.604-4.103
		c0,0-3.862-17.621,10.138-11.586c0,0,6.276,0.121,4.345,10.742c0,0,1.69,2.655-0.965,4.948c0,0-0.241,1.328-2.173,4.104v4.587
		c0,0,8.436,4.459,9.95,5.247"/>
</g>
</svg>
