<?xml version="1.0" encoding="utf-8"?>
<!-- Generator: Adobe Illustrator 16.0.0, SVG Export Plug-In . SVG Version: 6.00 Build 0)  -->
<!DOCTYPE svg PUBLIC "-//W3C//DTD SVG 1.1//EN" "http://www.w3.org/Graphics/SVG/1.1/DTD/svg11.dtd">
<svg version="1.1" id="Layer_1" xmlns="http://www.w3.org/2000/svg" xmlns:xlink="http://www.w3.org/1999/xlink" x="0px" y="0px"
	 width="100px" height="100px" viewBox="0 0 100 100" enable-background="new 0 0 100 100" xml:space="preserve">
<path d="M30,16c0.828,2.026,4.804,10.762,6,13.988V38h4v-8l6-14h-4.801L38,24l-3.199-8H30z M50,22c-2.012,0-3.542,0.551-4.664,1.891
	c-0.866,0.99-1.332,2.578-1.332,4.672L44,31.453c0,2.082,0.411,3.522,1.277,4.504C46.401,37.291,48.222,38,50,38
	c1.777,0,3.632-0.709,4.758-2.047c0.852-0.98,1.242-2.418,1.242-4.5v-2.902c0-2.096-0.484-3.67-1.336-4.66
	C53.54,22.551,51.777,22,50,22z M58,22v11.676c0,1.32,0.197,2.217,0.477,2.793c0.46,0.946,1.381,1.431,2.703,1.473
	c1.822,0.06,3.19-1.122,4.82-2.691V38h4V22h-4v10.75c-0.91,1.078-1.957,2.035-2.781,2.035C62.673,34.785,62.1,34.534,62,34V22H58z
	 M50,25.238c1.104,0,2,0.915,2,2.043v5.613c0,1.126-0.896,2.043-2,2.043c-1.104,0-2-0.915-2-2.043v-5.613
	C48,26.155,48.896,25.238,50,25.238z M49.98,44c0,0-13.419,0-22.379,0.641c-1.26,0.14-3.982,0.16-6.422,2.66
	c-1.92,1.88-2.539,6.199-2.539,6.199S18,56.561,18,61.621v4.738c0,5.061,0.641,8.121,0.641,8.121s0.619,4.318,2.539,6.219
	c2.44,2.48,5.639,2.4,7.059,2.66C33.358,83.84,50,84,50,84s13.438-0.02,22.398-0.66c1.26-0.141,3.982-0.16,6.422-2.66
	c1.92-1.88,2.539-6.199,2.539-6.199S82,71.42,82,66.359v-4.738c0-5.061-0.641-8.121-0.641-8.121s-0.619-4.319-2.539-6.199
	c-2.439-2.5-5.162-2.52-6.422-2.66C63.438,44,50.02,44,50.02,44H49.98z M24,52h12v4h-4v20h-4V56h-4V52z M50,52h4v8.762
	c1.5-1.76,2.299-2.781,4.238-2.762c1.52,0.02,2.742,0.881,3.242,2.441c0.26,0.84,0.52,2.34,0.52,4.32v5.5
	c-0.02,1.76-0.201,2.539-0.441,3.379c-0.5,1.561-1.801,2.359-3.32,2.359c-1.34,0-2.979-0.939-4.238-2.5V76h-4V52z M36,58h4v13.781
	c0.1,0.58,0.519,0.797,1.039,0.797c0.8,0,2.081-0.879,2.961-2.039V58h4v18h-4v-2.738C42.42,74.982,40.538,76,39.078,76
	c-1.28,0-2.177-0.559-2.617-1.578C36.201,73.781,36,72.818,36,71.379V58z M70.059,58c1.98,0,3.561,0.64,4.66,1.84
	C75.539,60.72,76,62.081,76,63.961V68h-8v3.602c0,0.92,0.9,1.68,2,1.68s2-0.76,2-1.68V70h4c0,1.02-0.121,1.879-0.141,2.199
	c-0.141,0.7-0.457,1.342-0.938,1.902C73.842,75.381,72.221,76,70.16,76c-2.08,0-3.641-0.601-4.781-1.801
	C64.539,73.34,64,72.02,64,70.16v-6.121c0-1.88,0.48-3.319,1.34-4.199C66.48,58.64,68.039,58,70.059,58z M70,60.898
	c-1.1,0-2,0.74-2,1.68v2.641h4v-2.641C72,61.639,71.1,60.898,70,60.898z M56.441,61.5c-0.311,0-0.762,0.156-1.215,0.391
	c-0.227,0.117-0.453,0.254-0.664,0.402S54.16,62.602,54,62.762V71.5c0.16,0.16,0.352,0.309,0.563,0.438
	c0.631,0.389,1.414,0.621,1.879,0.621c0.404,0,0.723-0.099,0.965-0.336c0.081-0.079,0.154-0.174,0.219-0.285
	c0.127-0.221,0.219-0.508,0.281-0.871S58,70.264,58,69.738v-5.477c0-0.525-0.031-0.963-0.094-1.32
	c-0.123-0.715-0.372-1.115-0.766-1.305C56.943,61.542,56.711,61.5,56.441,61.5z"/>
</svg>
