<?xml version="1.0" encoding="utf-8"?>
<!-- Generator: Adobe Illustrator 16.0.0, SVG Export Plug-In . SVG Version: 6.00 Build 0)  -->
<!DOCTYPE svg PUBLIC "-//W3C//DTD SVG 1.1//EN" "http://www.w3.org/Graphics/SVG/1.1/DTD/svg11.dtd">
<svg version="1.1" id="Layer_1" xmlns="http://www.w3.org/2000/svg" xmlns:xlink="http://www.w3.org/1999/xlink" x="0px" y="0px"
	 width="100px" height="100px" viewBox="0 0 100 100" enable-background="new 0 0 100 100" xml:space="preserve">
<path fill="none" stroke="#000000" stroke-miterlimit="10" d="M24.791,7.145c1.044,2.554,6.056,13.565,7.563,17.631v10.099h5.042
	V24.791l7.563-17.646h-6.051l-4.032,10.083L30.842,7.145H24.791z M50,14.708c-2.536,0-4.464,0.694-5.879,2.383
	c-1.091,1.248-1.679,3.249-1.679,5.889l-0.005,3.643c0,2.624,0.518,4.439,1.609,5.677c1.417,1.681,3.712,2.575,5.953,2.575
	c2.24,0,4.578-0.894,5.997-2.58c1.073-1.235,1.565-3.048,1.565-5.672v-3.658c0-2.642-0.61-4.626-1.684-5.874
	C54.462,15.402,52.24,14.708,50,14.708z M60.084,14.708v14.716c0,1.664,0.248,2.795,0.601,3.521c0.581,1.193,1.74,1.804,3.406,1.857
	c2.297,0.076,4.021-1.415,6.076-3.392v3.465h5.042V14.708h-5.042v13.549c-1.147,1.359-2.467,2.565-3.506,2.565
	c-0.688,0-1.41-0.316-1.536-0.99V14.708H60.084z M50,18.789c1.391,0,2.521,1.154,2.521,2.576v7.075c0,1.419-1.13,2.575-2.521,2.575
	c-1.392,0-2.521-1.153-2.521-2.575v-7.075C47.479,19.945,48.608,18.789,50,18.789z M49.975,42.438c0,0-16.914,0-28.207,0.808
	c-1.588,0.176-5.019,0.201-8.094,3.352c-2.421,2.37-3.201,7.813-3.201,7.813S9.666,58.27,9.666,64.647v5.973
	c0,6.378,0.808,10.236,0.808,10.236s0.78,5.441,3.2,7.838c3.076,3.127,7.107,3.025,8.897,3.354C29.024,92.653,50,92.854,50,92.854
	s16.938-0.024,28.231-0.832c1.588-0.177,5.019-0.201,8.095-3.353c2.42-2.369,3.2-7.813,3.2-7.813s0.808-3.858,0.808-10.236v-5.973
	c0-6.378-0.808-10.236-0.808-10.236s-0.78-5.443-3.2-7.813c-3.075-3.151-6.507-3.176-8.095-3.352
	c-11.294-0.808-28.206-0.808-28.206-0.808H49.975z M17.229,52.521h15.125v5.042h-5.042v25.209h-5.042V57.563h-5.042V52.521z
	 M50,52.521h5.042v11.044c1.891-2.218,2.897-3.506,5.342-3.48c1.915,0.024,3.456,1.109,4.087,3.077
	c0.327,1.059,0.654,2.949,0.654,5.444v6.932c-0.024,2.22-0.253,3.2-0.556,4.261c-0.631,1.967-2.271,2.973-4.186,2.973
	c-1.688,0-3.754-1.184-5.341-3.151v3.152h-5.042V52.521H50z M32.354,60.084h5.042v17.37c0.126,0.73,0.654,1.004,1.31,1.004
	c1.008,0,2.623-1.107,3.732-2.569V60.084h5.042v22.688h-5.042V79.32c-1.992,2.168-4.364,3.451-6.204,3.451
	c-1.614,0-2.745-0.704-3.299-1.989c-0.328-0.808-0.581-2.021-0.581-3.836V60.084z M75.282,60.084c2.497,0,4.489,0.807,5.874,2.318
	c1.034,1.11,1.615,2.825,1.615,5.194v5.091H72.688v4.54c0,1.159,1.135,2.118,2.521,2.118c1.386,0,2.521-0.959,2.521-2.118v-2.019
	h5.042c0,1.285-0.152,2.368-0.178,2.771c-0.178,0.882-0.576,1.691-1.183,2.398c-1.36,1.612-3.403,2.393-6.001,2.393
	c-2.621,0-4.588-0.759-6.026-2.27c-1.059-1.084-1.737-2.748-1.737-5.092v-7.715c0-2.369,0.605-4.183,1.688-5.293
	C70.772,60.891,72.737,60.084,75.282,60.084z M75.209,63.736c-1.387,0-2.521,0.934-2.521,2.117v3.329h5.042v-3.329
	C77.729,64.67,76.595,63.736,75.209,63.736z M58.119,64.495c-0.393,0-0.96,0.197-1.531,0.492c-0.287,0.147-0.571,0.32-0.837,0.507
	c-0.266,0.188-0.508,0.39-0.709,0.591V77.1c0.201,0.201,0.443,0.389,0.709,0.551c0.795,0.491,1.782,0.783,2.368,0.783
	c0.51,0,0.912-0.124,1.217-0.423c0.103-0.099,0.193-0.22,0.276-0.36c0.16-0.277,0.276-0.64,0.354-1.098
	c0.077-0.456,0.117-1.012,0.117-1.674v-6.904c0-0.661-0.04-1.214-0.119-1.663c-0.154-0.9-0.469-1.405-0.965-1.646
	C58.752,64.548,58.459,64.495,58.119,64.495z"/>
</svg>
